<svg xmlns="http://www.w3.org/2000/svg" width="1024" height="1024"><path fill="#252422" d="M128 0h768a128 128 0 0 1 128 128v768a128 128 0 0 1-128 128H128A128 128 0 0 1 0 896V128A128 128 0 0 1 128 0Z"/><path fill="#ffe285" d="M354.6 211.7q-17.7 0-27 5.9T314 242q-3.4 18.5-3.4 55.7v92q0 36.2-9.3 60.7-9.3 23.7-22 38-12.6 14.3-24.4 22 10.1 7.5 22.8 21 13.5 13.5 22.8 35.5 10.1 21 10.1 51.5v107.2q0 36.2 3.4 54.8 4.2 18.6 13.5 24.5 9.3 5.9 27 5.9h34.6v84.4h-59q-22 0-43.1-1.7-21.1-.8-38.8-9.3-17-8.4-27-31.2-10.2-22-10.2-65V652.2q0-24.4-7.6-47.2-6.7-23.7-22-38.9-15.1-15.1-38.7-16v-81.9q23.6-.8 38.8-15.1 15.2-15.2 22-38 7.5-23.7 7.5-49V229.4q0-40.5 10.2-61.6 10-21.1 27-29.5 16.8-8.5 38-9.3 21.9-1.7 43.8-1.7h59.1v84.4zm313.3 599.2q17.7 0 27-6 10.1-5.8 13.5-24.4 4.2-18.6 4.2-55.7v-98.7q0-33.8 9.3-56.6 10.1-22.8 22.8-36.3 13.5-14.3 23.6-21-10.1-7.7-23.6-21.2-12.7-14.3-22.8-35.4-9.3-22-9.3-52.3V296.9q0-37.1-4.2-54.8-3.4-18.6-13.5-24.5-9.3-6-27-6h-34.6v-84.3h59q22 0 43.1.8 21.1.9 38 9.3Q791 146 801.2 167q11 21 11 61.6v135.8q0 23.7 6 49 6.7 24.5 21 41.3 15.2 17 40.5 17.8v81.8q-25.3 0-40.5 17.8-14.3 16.8-21 41.3-6 24.5-6 49V794q0 39.7-10.1 60.8-10.2 21-27.9 29.5-16.9 8.5-38 9.3-21 1.7-43.8 1.7h-59.1v-84.4z"/></svg>