<svg xmlns="http://www.w3.org/2000/svg" viewBox="0 0 1024 1024"><path fill="#252422" d="M256 0h512a256 256 0 0 1 256 256v512a256 256 0 0 1-256 256H256A256 256 0 0 1 0 768V256A256 256 0 0 1 256 0Z"/><path fill="#ffe285" d="M355.36 212.39q-17.73 0-27 5.91-9.3 5.9-13.51 24.48-3.38 18.56-3.38 55.7v91.99q0 36.29-9.28 60.76-9.28 23.63-21.94 37.98-12.66 14.35-24.48 21.94 10.13 7.6 22.79 21.1 13.5 13.5 22.78 35.45 10.13 21.1 10.13 51.48v107.18q0 36.3 3.38 54.86 4.22 18.57 13.5 24.47 9.28 5.91 27 5.91h34.61V896h-59.08q-21.94 0-43.04-1.7-21.1-.83-38.82-9.27-16.88-8.44-27-31.23-10.13-21.94-10.13-64.99V652.94q0-24.48-7.6-47.26-6.75-23.63-21.94-38.83-15.2-15.19-38.83-16.03v-81.86q23.64-.85 38.83-15.2 15.19-15.19 21.94-37.97 7.6-23.63 7.6-48.95V230.11q0-40.51 10.12-61.61 10.13-21.1 27-29.54 16.89-8.44 37.99-9.29 21.94-1.68 43.88-1.68h59.08v84.4zm313.28 599.22q17.73 0 27-5.9 10.14-5.91 13.51-24.48 4.22-18.57 4.22-55.7v-98.74q0-33.76 9.29-56.55 10.12-22.79 22.78-36.29 13.5-14.35 23.63-21.1-10.12-7.6-23.63-21.1-12.66-14.35-22.78-35.44-9.29-21.95-9.29-52.33V297.63q0-37.13-4.22-54.85-3.37-18.57-13.5-24.48-9.28-5.9-27-5.9h-34.61V128h59.08q21.94 0 43.04.84 21.1.84 37.98 9.28 17.72 8.44 27.85 29.54 10.97 21.1 10.97 61.61v135.88q0 23.63 5.9 48.95 6.76 24.47 21.1 41.35 15.2 16.88 40.52 17.73v81.86q-25.32 0-40.51 17.72-14.35 16.88-21.1 41.36-5.91 24.47-5.91 48.95v131.64q0 39.67-10.13 60.77-10.13 21.1-27.85 29.54-16.88 8.44-37.98 9.28-21.1 1.69-43.88 1.69h-59.08v-84.4z"/></svg>