<svg xmlns="http://www.w3.org/2000/svg" viewBox="0 0 460 460"><path fill="#2E3440" d="M307 461H1V1h460v460H307m-24-137v19c1 7 3 8 9 8h35c12 0 21-5 29-13 9-10 11-21 12-33v-37c0-12 7-18 18-18h10c7 0 9-2 9-9v-23c0-6-3-9-9-9h-9c-11 0-19-6-19-18v-36l-2-15c-4-14-12-25-26-30-16-5-33-3-49-2-6 0-7 2-8 8v24c1 6 3 8 9 8l16 1c11 1 16 5 16 16l1 40c1 10 4 19 15 22l5 3h-2c-5 4-11 6-14 10-3 6-4 13-4 19l-1 36c-1 10-5 14-15 15h-13c-11 0-13 2-13 14M122 110l-9 5c-12 9-18 22-19 37v39c0 11-7 18-19 18H65c-5 1-8 3-8 8v24c0 7 2 8 8 9h10c12 0 19 6 19 19v36c0 9 2 17 6 25 8 13 20 21 36 21h34c6 0 8-1 9-8v-21c0-10-3-12-12-12h-16c-8-1-12-5-13-13l-1-12v-31c-1-10-4-19-15-22l-5-3c9-3 16-6 18-16l2-14 1-36c0-9 6-13 14-14h18c6-1 8-3 9-9v-23c-1-7-2-9-9-9-16 0-32-2-48 2z"/><path fill="#FFE184" d="M283 323c0-11 2-13 13-13h13c10-1 14-5 15-15l1-36c0-6 1-13 4-19 3-4 9-6 14-10h2l-5-3c-11-3-14-12-15-22l-1-40c0-11-5-15-16-16l-16-1c-6 0-8-2-9-8v-24c1-6 2-8 8-8 16-1 33-3 49 2 14 5 22 16 26 30l2 15v36c0 12 8 18 19 18h9c6 0 9 3 9 9v23c0 7-2 9-9 9h-10c-11 0-18 6-18 18v37c-1 12-3 23-12 33-8 8-17 13-29 13h-35c-6 0-8-1-9-8v-20zM122 110c16-4 32-2 48-2 7 0 8 2 9 9v23c-1 6-3 8-9 9h-18c-8 1-14 5-14 14l-1 36-2 14c-2 10-9 13-18 16l5 3c11 3 14 12 15 22v31l1 12c1 8 5 12 13 13h16c9 0 12 2 12 12v21c-1 7-3 8-9 8h-34c-16 0-28-8-36-21-4-8-6-16-6-25v-36c0-13-7-19-19-19H65c-6-1-8-2-8-9v-24c0-5 3-7 8-8h10c12 0 19-7 19-18v-39c1-15 7-28 19-37l9-5z"/></svg>
