<svg xmlns="http://www.w3.org/2000/svg" width="1024" height="1024"><path fill="#252422" d="M0 0h1024v1024H0z"/><path fill="#ffe285" d="M302.4 111.8q-23.6 0-36 7.9-12.4 7.9-18 32.6-4.5 24.8-4.5 74.3v122.6q0 48.4-12.4 81-12.4 31.6-29.3 50.7-16.8 19.1-32.6 29.3 13.5 10 30.4 28 18 18.1 30.4 47.4 13.5 28 13.5 68.6v143q0 48.3 4.5 73 5.6 24.8 18 32.7 12.4 7.9 36 7.9h46.1v112.5h-78.7q-29.3 0-57.4-2.3-28.2-1-51.8-12.3-22.5-11.3-36-41.7-13.5-29.2-13.5-86.6V699.2q0-32.6-10.1-63-9-31.5-29.3-51.8-20.3-20.2-51.8-21.4V454q31.5-1.1 51.8-20.3Q92 413.4 101 383q10-31.5 10-65.3V135.4q0-54 13.6-82.1 13.5-28.1 36-39.4 22.5-11.2 50.6-12.4 29.3-2.2 58.6-2.2h78.7v112.5Zm417.7 799q23.6 0 36-8 13.5-7.8 18-32.6 5.6-24.7 5.6-74.2V664.3q0-45 12.4-75.4 13.5-30.4 30.4-48.4 18-19 31.5-28-13.5-10.2-31.5-28.2-16.9-19.1-30.4-47.3-12.4-29.2-12.4-69.7V225.5q0-49.5-5.6-73.2-4.5-24.7-18-32.6-12.4-7.9-36-7.9H674V-.7h78.7Q782-.7 810.1.4q28.2 1.1 50.7 12.4 23.6 11.2 37 39.4 14.7 28.1 14.7 82.1v181.2q0 31.5 7.9 65.3 9 32.6 28.1 55 20.3 22.6 54 23.7v109.2q-33.7 0-54 23.6-19.1 22.5-28.1 55.1-7.9 32.7-7.9 65.3v175.6q0 52.8-13.5 81-13.5 28.1-37.1 39.4-22.5 11.2-50.7 12.3-28 2.3-58.5 2.3H674V910.8Z"/></svg>